<mxfile host="app.diagrams.net" modified="2024-04-02T06:01:05.372Z" agent="Mozilla/5.0 (Windows NT 10.0; Win64; x64) AppleWebKit/537.36 (KHTML, like Gecko) Chrome/123.0.0.0 Safari/537.36" etag="sbfHDCfvg2c5gTv-jtjs" version="24.2.1" type="device">
  <diagram id="C5RBs43oDa-KdzZeNtuy" name="Page-1">
    <mxGraphModel dx="1509" dy="813" grid="1" gridSize="10" guides="1" tooltips="1" connect="1" arrows="1" fold="1" page="1" pageScale="1" pageWidth="827" pageHeight="1169" math="0" shadow="0">
      <root>
        <mxCell id="WIyWlLk6GJQsqaUBKTNV-0" />
        <mxCell id="WIyWlLk6GJQsqaUBKTNV-1" parent="WIyWlLk6GJQsqaUBKTNV-0" />
        <mxCell id="r7AjFzzUCgHGY4rbMB5s-0" value="User" style="swimlane;whiteSpace=wrap;html=1;" vertex="1" parent="WIyWlLk6GJQsqaUBKTNV-1">
          <mxGeometry x="120" y="40" width="200" height="680" as="geometry" />
        </mxCell>
        <mxCell id="r7AjFzzUCgHGY4rbMB5s-6" value="" style="edgeStyle=orthogonalEdgeStyle;rounded=0;orthogonalLoop=1;jettySize=auto;html=1;" edge="1" parent="r7AjFzzUCgHGY4rbMB5s-0" source="r7AjFzzUCgHGY4rbMB5s-4">
          <mxGeometry relative="1" as="geometry">
            <mxPoint x="100" y="130" as="targetPoint" />
          </mxGeometry>
        </mxCell>
        <mxCell id="r7AjFzzUCgHGY4rbMB5s-4" value="mulai" style="strokeWidth=2;html=1;shape=mxgraph.flowchart.start_1;whiteSpace=wrap;" vertex="1" parent="r7AjFzzUCgHGY4rbMB5s-0">
          <mxGeometry x="50" y="40" width="100" height="50" as="geometry" />
        </mxCell>
        <mxCell id="r7AjFzzUCgHGY4rbMB5s-10" value="" style="edgeStyle=orthogonalEdgeStyle;rounded=0;orthogonalLoop=1;jettySize=auto;html=1;" edge="1" parent="r7AjFzzUCgHGY4rbMB5s-0" source="r7AjFzzUCgHGY4rbMB5s-8" target="r7AjFzzUCgHGY4rbMB5s-9">
          <mxGeometry relative="1" as="geometry" />
        </mxCell>
        <mxCell id="r7AjFzzUCgHGY4rbMB5s-8" value="login" style="rounded=1;whiteSpace=wrap;html=1;absoluteArcSize=1;arcSize=14;strokeWidth=2;" vertex="1" parent="r7AjFzzUCgHGY4rbMB5s-0">
          <mxGeometry x="50" y="130" width="100" height="50" as="geometry" />
        </mxCell>
        <mxCell id="r7AjFzzUCgHGY4rbMB5s-14" value="" style="edgeStyle=orthogonalEdgeStyle;rounded=0;orthogonalLoop=1;jettySize=auto;html=1;" edge="1" parent="r7AjFzzUCgHGY4rbMB5s-0" source="r7AjFzzUCgHGY4rbMB5s-9" target="r7AjFzzUCgHGY4rbMB5s-13">
          <mxGeometry relative="1" as="geometry" />
        </mxCell>
        <mxCell id="r7AjFzzUCgHGY4rbMB5s-9" value="berhasil" style="strokeWidth=2;html=1;shape=mxgraph.flowchart.decision;whiteSpace=wrap;" vertex="1" parent="r7AjFzzUCgHGY4rbMB5s-0">
          <mxGeometry x="65" y="210" width="70" height="70" as="geometry" />
        </mxCell>
        <mxCell id="r7AjFzzUCgHGY4rbMB5s-13" value="tampilan login" style="rounded=0;whiteSpace=wrap;html=1;" vertex="1" parent="r7AjFzzUCgHGY4rbMB5s-0">
          <mxGeometry x="47" y="310" width="106" height="50" as="geometry" />
        </mxCell>
        <mxCell id="r7AjFzzUCgHGY4rbMB5s-22" value="" style="edgeStyle=orthogonalEdgeStyle;rounded=0;orthogonalLoop=1;jettySize=auto;html=1;" edge="1" parent="r7AjFzzUCgHGY4rbMB5s-0" source="r7AjFzzUCgHGY4rbMB5s-19" target="r7AjFzzUCgHGY4rbMB5s-21">
          <mxGeometry relative="1" as="geometry" />
        </mxCell>
        <mxCell id="r7AjFzzUCgHGY4rbMB5s-19" value="melakukan pembayaran" style="rounded=1;whiteSpace=wrap;html=1;absoluteArcSize=1;arcSize=14;strokeWidth=2;" vertex="1" parent="r7AjFzzUCgHGY4rbMB5s-0">
          <mxGeometry x="53" y="400" width="100" height="50" as="geometry" />
        </mxCell>
        <mxCell id="r7AjFzzUCgHGY4rbMB5s-25" style="edgeStyle=orthogonalEdgeStyle;rounded=0;orthogonalLoop=1;jettySize=auto;html=1;entryX=0;entryY=0.5;entryDx=0;entryDy=0;" edge="1" parent="r7AjFzzUCgHGY4rbMB5s-0" source="r7AjFzzUCgHGY4rbMB5s-21" target="r7AjFzzUCgHGY4rbMB5s-19">
          <mxGeometry relative="1" as="geometry">
            <Array as="points">
              <mxPoint x="103" y="610" />
              <mxPoint x="33" y="610" />
              <mxPoint x="33" y="425" />
            </Array>
          </mxGeometry>
        </mxCell>
        <mxCell id="r7AjFzzUCgHGY4rbMB5s-21" value="berhasil" style="strokeWidth=2;html=1;shape=mxgraph.flowchart.decision;whiteSpace=wrap;" vertex="1" parent="r7AjFzzUCgHGY4rbMB5s-0">
          <mxGeometry x="68" y="490" width="70" height="70" as="geometry" />
        </mxCell>
        <mxCell id="r7AjFzzUCgHGY4rbMB5s-1" value="Sistem" style="swimlane;whiteSpace=wrap;html=1;" vertex="1" parent="WIyWlLk6GJQsqaUBKTNV-1">
          <mxGeometry x="320" y="40" width="200" height="680" as="geometry" />
        </mxCell>
        <mxCell id="r7AjFzzUCgHGY4rbMB5s-16" value="" style="edgeStyle=orthogonalEdgeStyle;rounded=0;orthogonalLoop=1;jettySize=auto;html=1;" edge="1" parent="r7AjFzzUCgHGY4rbMB5s-1" source="r7AjFzzUCgHGY4rbMB5s-11" target="r7AjFzzUCgHGY4rbMB5s-15">
          <mxGeometry relative="1" as="geometry" />
        </mxCell>
        <mxCell id="r7AjFzzUCgHGY4rbMB5s-11" value="dashboard user" style="rounded=0;whiteSpace=wrap;html=1;" vertex="1" parent="r7AjFzzUCgHGY4rbMB5s-1">
          <mxGeometry x="47" y="220" width="106" height="50" as="geometry" />
        </mxCell>
        <mxCell id="r7AjFzzUCgHGY4rbMB5s-18" value="" style="edgeStyle=orthogonalEdgeStyle;rounded=0;orthogonalLoop=1;jettySize=auto;html=1;" edge="1" parent="r7AjFzzUCgHGY4rbMB5s-1" source="r7AjFzzUCgHGY4rbMB5s-15" target="r7AjFzzUCgHGY4rbMB5s-17">
          <mxGeometry relative="1" as="geometry" />
        </mxCell>
        <mxCell id="r7AjFzzUCgHGY4rbMB5s-15" value="bayar tagihan" style="strokeWidth=2;html=1;shape=mxgraph.flowchart.decision;whiteSpace=wrap;" vertex="1" parent="r7AjFzzUCgHGY4rbMB5s-1">
          <mxGeometry x="65" y="300" width="70" height="70" as="geometry" />
        </mxCell>
        <mxCell id="r7AjFzzUCgHGY4rbMB5s-17" value="halaman pembayaran" style="rounded=0;whiteSpace=wrap;html=1;" vertex="1" parent="r7AjFzzUCgHGY4rbMB5s-1">
          <mxGeometry x="47" y="400" width="106" height="50" as="geometry" />
        </mxCell>
        <mxCell id="r7AjFzzUCgHGY4rbMB5s-23" value="transaksi berhasil" style="rounded=0;whiteSpace=wrap;html=1;" vertex="1" parent="r7AjFzzUCgHGY4rbMB5s-1">
          <mxGeometry x="47" y="500" width="106" height="50" as="geometry" />
        </mxCell>
        <mxCell id="r7AjFzzUCgHGY4rbMB5s-2" value="Admin" style="swimlane;whiteSpace=wrap;html=1;" vertex="1" parent="WIyWlLk6GJQsqaUBKTNV-1">
          <mxGeometry x="520" y="40" width="200" height="680" as="geometry" />
        </mxCell>
        <mxCell id="r7AjFzzUCgHGY4rbMB5s-30" value="" style="edgeStyle=orthogonalEdgeStyle;rounded=0;orthogonalLoop=1;jettySize=auto;html=1;" edge="1" parent="r7AjFzzUCgHGY4rbMB5s-2" source="r7AjFzzUCgHGY4rbMB5s-27" target="r7AjFzzUCgHGY4rbMB5s-28">
          <mxGeometry relative="1" as="geometry" />
        </mxCell>
        <mxCell id="r7AjFzzUCgHGY4rbMB5s-27" value="cetak laporan" style="rounded=1;whiteSpace=wrap;html=1;absoluteArcSize=1;arcSize=14;strokeWidth=2;" vertex="1" parent="r7AjFzzUCgHGY4rbMB5s-2">
          <mxGeometry x="50" y="500" width="100" height="50" as="geometry" />
        </mxCell>
        <mxCell id="r7AjFzzUCgHGY4rbMB5s-28" value="selesai" style="strokeWidth=2;html=1;shape=mxgraph.flowchart.start_1;whiteSpace=wrap;" vertex="1" parent="r7AjFzzUCgHGY4rbMB5s-2">
          <mxGeometry x="50" y="580" width="100" height="50" as="geometry" />
        </mxCell>
        <mxCell id="r7AjFzzUCgHGY4rbMB5s-32" style="edgeStyle=orthogonalEdgeStyle;rounded=0;orthogonalLoop=1;jettySize=auto;html=1;entryX=0.5;entryY=0;entryDx=0;entryDy=0;" edge="1" parent="r7AjFzzUCgHGY4rbMB5s-2" source="r7AjFzzUCgHGY4rbMB5s-31" target="r7AjFzzUCgHGY4rbMB5s-27">
          <mxGeometry relative="1" as="geometry" />
        </mxCell>
        <mxCell id="r7AjFzzUCgHGY4rbMB5s-31" value="dashboard admin" style="rounded=0;whiteSpace=wrap;html=1;" vertex="1" parent="r7AjFzzUCgHGY4rbMB5s-2">
          <mxGeometry x="47" y="42" width="106" height="50" as="geometry" />
        </mxCell>
        <mxCell id="r7AjFzzUCgHGY4rbMB5s-12" value="" style="edgeStyle=orthogonalEdgeStyle;rounded=0;orthogonalLoop=1;jettySize=auto;html=1;" edge="1" parent="WIyWlLk6GJQsqaUBKTNV-1" source="r7AjFzzUCgHGY4rbMB5s-9" target="r7AjFzzUCgHGY4rbMB5s-11">
          <mxGeometry relative="1" as="geometry" />
        </mxCell>
        <mxCell id="r7AjFzzUCgHGY4rbMB5s-20" value="" style="edgeStyle=orthogonalEdgeStyle;rounded=0;orthogonalLoop=1;jettySize=auto;html=1;" edge="1" parent="WIyWlLk6GJQsqaUBKTNV-1" source="r7AjFzzUCgHGY4rbMB5s-17" target="r7AjFzzUCgHGY4rbMB5s-19">
          <mxGeometry relative="1" as="geometry" />
        </mxCell>
        <mxCell id="r7AjFzzUCgHGY4rbMB5s-24" value="" style="edgeStyle=orthogonalEdgeStyle;rounded=0;orthogonalLoop=1;jettySize=auto;html=1;" edge="1" parent="WIyWlLk6GJQsqaUBKTNV-1" source="r7AjFzzUCgHGY4rbMB5s-21" target="r7AjFzzUCgHGY4rbMB5s-23">
          <mxGeometry relative="1" as="geometry" />
        </mxCell>
        <mxCell id="r7AjFzzUCgHGY4rbMB5s-29" value="" style="edgeStyle=orthogonalEdgeStyle;rounded=0;orthogonalLoop=1;jettySize=auto;html=1;" edge="1" parent="WIyWlLk6GJQsqaUBKTNV-1" source="r7AjFzzUCgHGY4rbMB5s-23" target="r7AjFzzUCgHGY4rbMB5s-27">
          <mxGeometry relative="1" as="geometry" />
        </mxCell>
      </root>
    </mxGraphModel>
  </diagram>
</mxfile>
